<svg xmlns="http://www.w3.org/2000/svg" width="24" height="24" viewBox="0 0 24 24" fill="none">
<path d="M8.5 5.97543C8.81325 5.39563 9.43144 5 10.1406 5C11.1661 5 12 5.82637 12 6.84167C12 9.0898 9.62131 10.5289 8.59931 11.0433H8.5945C8.56563 11.0571 8.53412 11.0667 8.5 11.0667C8.46588 11.0667 8.43437 11.0571 8.4055 11.0433H8.40069C7.37869 10.5289 5 9.0898 5 6.84167C5 5.82637 5.83431 5 6.85938 5C7.569 5 8.18675 5.39563 8.5 5.97543Z" fill="#333333"/>
<path d="M5 15.33V14H19V15.33H5Z" fill="#333333"/>
<path d="M5 18.66H16V17.33H5V18.66Z" fill="#333333"/>
<path fill-rule="evenodd" clip-rule="evenodd" d="M1 1H23V23H1V1ZM2.33 2.33H21.67V21.67H2.33V2.33Z" fill="#333333"/>
</svg>
