<svg xmlns="http://www.w3.org/2000/svg" width="24" height="24" viewBox="0 0 24 24" fill="none">
<g opacity="0.95">
<path fill-rule="evenodd" clip-rule="evenodd" d="M11.9998 12C15.0373 12 17.4998 9.53757 17.4998 6.5C17.4998 3.46243 15.0373 1 11.9998 1C8.96219 1 6.49976 3.46243 6.49976 6.5C6.49976 9.53757 8.96219 12 11.9998 12ZM16.1698 6.5C16.1698 8.80303 14.3028 10.67 11.9998 10.67C9.69673 10.67 7.82976 8.80303 7.82976 6.5C7.82976 4.19697 9.69673 2.33 11.9998 2.33C14.3028 2.33 16.1698 4.19697 16.1698 6.5Z" fill="#333333"/>
<path d="M23.9655 23H22.5903L20.5727 15.33H3.49411L1.41253 23H0.0344238L2.47695 14H21.5981L23.9655 23Z" fill="#333333"/>
</g>
</svg>
