<svg xmlns="http://www.w3.org/2000/svg" width="24" height="24" viewBox="0 0 24 24" fill="none">
<path d="M8.50006 4.82741C8.05159 4.46649 7.48044 4.25 6.85938 4.25C5.42688 4.25 4.25 5.4054 4.25 6.84167C4.25 8.2473 4.99524 9.3505 5.79324 10.1294C6.59358 10.9105 7.51987 11.4396 8.06351 11.7132L8.22259 11.7933H8.29174C8.35443 11.8075 8.42416 11.8167 8.5 11.8167C8.57584 11.8167 8.64557 11.8075 8.70826 11.7933H8.77741L8.93649 11.7132C9.48013 11.4396 10.4064 10.9105 11.2068 10.1294C12.0048 9.3505 12.75 8.2473 12.75 6.84167C12.75 5.40552 11.5737 4.25 10.1406 4.25C9.51987 4.25 8.94863 4.46647 8.50006 4.82741ZM5 12.25H4.25V13V15V15.75H5H19H19.75V15V13V12.25H19H5ZM16 19.75H16.75V19V17V16.25H16H5H4.25V17V19V19.75H5H16ZM1.75 1.75H22.25V22.25H1.75V1.75Z" fill="#222222" stroke="#222222" stroke-width="1.5"/>
</svg>
