<svg xmlns="http://www.w3.org/2000/svg" width="32" height="24" viewBox="0 0 32 24" fill="none">
<path fill-rule="evenodd" clip-rule="evenodd" d="M18.5 20C20.884 20 23.0629 19.1219 24.7309 17.6714L30.1363 23.0768L31.0768 22.1364L25.6713 16.7309C27.1218 15.063 28 12.884 28 10.5C28 5.25329 23.7467 1 18.5 1C13.2533 1 9 5.25329 9 10.5C9 15.7467 13.2533 20 18.5 20ZM18.5 18.67C23.0122 18.67 26.67 15.0122 26.67 10.5C26.67 5.98783 23.0122 2.33 18.5 2.33C13.9878 2.33 10.33 5.98783 10.33 10.5C10.33 15.0122 13.9878 18.67 18.5 18.67Z" fill="#333333"/>
<path d="M1 5.665H8V4.335H1V5.665Z" fill="#333333"/>
<path d="M8 17.665H1V16.335H8V17.665Z" fill="#333333"/>
<path d="M1 11.665H6V10.335H1V11.665Z" fill="#333333"/>
</svg>
