<svg width="20" height="20" viewBox="0 0 20 20" fill="none" xmlns="http://www.w3.org/2000/svg">
<g clip-path="url(#clip0_1_9875)">
<g filter="url(#filter0_d_1_9875)">
<path d="M2.99984 2.16699C2.5396 2.16699 2.1665 2.54009 2.1665 3.00033V14.3343C2.1665 14.7945 2.5396 15.1676 2.99984 15.1676H14.3338C14.7941 15.1676 15.1672 14.7945 15.1672 14.3343V3.00033C15.1672 2.54009 14.7941 2.16699 14.3338 2.16699H2.99984Z" fill="white"/>
<path d="M4.83496 16.9999V16.5839H16.5837V4.83504H16.9998C17.4601 4.83504 17.8332 5.20814 17.8332 5.66838V16.9999C17.8332 17.4602 17.4601 17.8333 16.9998 17.8333H5.6683C5.20806 17.8333 4.83496 17.4602 4.83496 16.9999Z" fill="white"/>
</g>
</g>
<defs>
<filter id="filter0_d_1_9875" x="0.166504" y="0.166992" width="19.6665" height="19.666" filterUnits="userSpaceOnUse" color-interpolation-filters="sRGB">
<feFlood flood-opacity="0" result="BackgroundImageFix"/>
<feColorMatrix in="SourceAlpha" type="matrix" values="0 0 0 0 0 0 0 0 0 0 0 0 0 0 0 0 0 0 127 0" result="hardAlpha"/>
<feOffset/>
<feGaussianBlur stdDeviation="1"/>
<feComposite in2="hardAlpha" operator="out"/>
<feColorMatrix type="matrix" values="0 0 0 0 0 0 0 0 0 0 0 0 0 0 0 0 0 0 0.4 0"/>
<feBlend mode="normal" in2="BackgroundImageFix" result="effect1_dropShadow_1_9875"/>
<feBlend mode="normal" in="SourceGraphic" in2="effect1_dropShadow_1_9875" result="shape"/>
</filter>
<clipPath id="clip0_1_9875">
<rect width="20" height="20" fill="white"/>
</clipPath>
</defs>
</svg>
